<?xml version="1.0" encoding="UTF-8"?><svg id="Layer_1" xmlns="http://www.w3.org/2000/svg" viewBox="0 0 500 500"><defs><style>.cls-1{fill:#ff8a69;}.cls-2{fill:#faa944;}.cls-3{fill:#4d75fe;}.cls-4{fill:#022791;}</style></defs><path class="cls-4" d="M319.78,207.35c48.33,37.59,104.79,26.12,148.23-13.24,7.89-7.15,17.74-12.95,9.77-22.36-3.84-4.54-29.15-30.13-32.54-30.08-3.79.05-23.49,16.83-29.55,20.4-21.89,12.92-46.53,14.2-66.85-2.95-29.63-25.01-20.12-55.95-3.86-85.22,5.46-9.83,16.47-16.75,7.83-27.13-3.83-4.6-24.28-25.62-28.19-27.72-8.9-4.79-26.21,22.92-30.43,29.66-35.54,56.78-28.61,116.48,25.58,158.64Z"/><path class="cls-4" d="M354.19,138.81c34.84,45.71,90.29-14.72,48.9-46.97-31.67-24.68-73.46,14.75-48.9,46.97Z"/><path class="cls-1" d="M180.03,292.65c-48.33-37.59-104.79-26.12-148.23,13.24-7.89,7.15-17.74,12.95-9.77,22.36,3.84,4.54,29.15,30.13,32.54,30.08,3.79-.05,23.49-16.83,29.55-20.4,21.89-12.92,46.53-14.2,66.85,2.95,29.63,25.01,20.12,55.95,3.86,85.22-5.46,9.83-16.47,16.75-7.83,27.13,3.83,4.6,24.28,25.62,28.19,27.72,8.9,4.79,26.21-22.92,30.43-29.66,35.54-56.78,28.61-116.48-25.58-158.64Z"/><path class="cls-1" d="M145.62,361.19c-34.84-45.71-90.29,14.72-48.9,46.97,31.67,24.68,73.46-14.75,48.9-46.97Z"/><path class="cls-3" d="M292.22,319.7c-37.59,48.33-26.12,104.79,13.24,148.23,7.15,7.89,12.95,17.74,22.36,9.77,4.54-3.84,30.13-29.15,30.08-32.54-.05-3.79-16.83-23.49-20.4-29.55-12.92-21.89-14.2-46.53,2.95-66.85,25.01-29.63,55.95-20.12,85.22-3.86,9.83,5.46,16.75,16.47,27.13,7.83,4.6-3.83,25.62-24.28,27.72-28.19,4.79-8.9-22.92-26.21-29.66-30.43-56.78-35.54-116.48-28.61-158.64,25.58Z"/><path class="cls-3" d="M360.76,354.11c-45.71,34.84,14.72,90.29,46.97,48.9,24.68-31.67-14.75-73.46-46.97-48.9Z"/><path class="cls-2" d="M207.78,180.8c37.59-48.33,26.12-104.79-13.24-148.23-7.15-7.89-12.95-17.74-22.36-9.77-4.54,3.84-30.13,29.15-30.08,32.54.05,3.79,16.83,23.49,20.4,29.55,12.92,21.89,14.2,46.53-2.95,66.85-25.01,29.63-55.95,20.12-85.22,3.86-9.83-5.46-16.75-16.47-27.13-7.83-4.6,3.83-25.62,24.28-27.72,28.19-4.79,8.9,22.92,26.21,29.66,30.43,56.78,35.54,116.48,28.61,158.64-25.58Z"/><path class="cls-2" d="M139.24,146.39c45.71-34.84-14.72-90.29-46.97-48.9-24.68,31.67,14.75,73.46,46.97,48.9Z"/></svg>