<svg width="4" height="14" viewBox="0 0 4 14" fill="none" xmlns="http://www.w3.org/2000/svg">
<path d="M1.99992 7.66663C2.36811 7.66663 2.66659 7.36815 2.66659 6.99996C2.66659 6.63177 2.36811 6.33329 1.99992 6.33329C1.63173 6.33329 1.33325 6.63177 1.33325 6.99996C1.33325 7.36815 1.63173 7.66663 1.99992 7.66663Z" stroke="#1E1E1E" stroke-width="1.6" stroke-linecap="round" stroke-linejoin="round"/>
<path d="M1.99992 2.99996C2.36811 2.99996 2.66659 2.70148 2.66659 2.33329C2.66659 1.9651 2.36811 1.66663 1.99992 1.66663C1.63173 1.66663 1.33325 1.9651 1.33325 2.33329C1.33325 2.70148 1.63173 2.99996 1.99992 2.99996Z" stroke="#1E1E1E" stroke-width="1.6" stroke-linecap="round" stroke-linejoin="round"/>
<path d="M1.99992 12.3333C2.36811 12.3333 2.66659 12.0348 2.66659 11.6666C2.66659 11.2984 2.36811 11 1.99992 11C1.63173 11 1.33325 11.2984 1.33325 11.6666C1.33325 12.0348 1.63173 12.3333 1.99992 12.3333Z" stroke="#1E1E1E" stroke-width="1.6" stroke-linecap="round" stroke-linejoin="round"/>
</svg>
